<svg width="105" height="15" viewBox="0 0 105 15" fill="none" xmlns="http://www.w3.org/2000/svg">
<path fill-rule="evenodd" clip-rule="evenodd" d="M56.2294 6.94365V6.96987C56.2294 8.41969 55.3099 9.43215 53.9932 9.43215C52.8617 9.43215 51.6915 8.50631 51.6915 6.95688V6.93048C51.6915 5.40961 52.8862 4.4682 53.9932 4.4682C55.2889 4.4682 56.2294 5.50929 56.2294 6.94365ZM54.1763 3.2644C53.201 3.2644 52.3972 3.66066 51.7308 4.47295V3.40892H50.4238V12.5912H51.7308V9.48326C52.3821 10.2486 53.2029 10.6359 54.1763 10.6359C55.8176 10.6359 57.562 9.34653 57.562 6.95689V6.93049C57.562 4.54928 55.8176 3.2644 54.1763 3.2644V3.2644Z" fill="#2B2C33"/>
<path fill-rule="evenodd" clip-rule="evenodd" d="M62.189 3.38993C61.2906 3.38993 60.5627 3.73231 60.0194 4.409V0.699463H58.7139V10.7258H60.0194V6.63172C60.0194 5.45028 60.7934 4.62519 61.901 4.62519C62.9969 4.62519 63.6248 5.32742 63.6248 6.5517V10.7258H64.931V6.29861C64.931 4.53168 63.8544 3.38993 62.189 3.38993" fill="#2B2C33"/>
<path fill-rule="evenodd" clip-rule="evenodd" d="M71.0516 7.33097V7.88484C71.0516 8.86595 70.1453 9.60576 68.9435 9.60576C68.1984 9.60576 67.3962 9.22213 67.3962 8.37975V8.35302C67.3962 7.55181 68.0768 7.07354 69.2175 7.07354C69.8341 7.07354 70.4355 7.15786 71.0516 7.33097ZM69.2819 3.2644C68.1767 3.2644 67.3914 3.56216 66.7684 3.85342L66.6439 3.91172L67.0459 5.04136L67.1919 4.97268C67.7381 4.71579 68.3564 4.47812 69.1778 4.47812C70.0265 4.47812 71.0375 4.77904 71.0375 6.21253V6.25412C70.5401 6.11998 69.9514 6.00684 69.1126 6.00684C67.2431 6.00684 66.082 6.92131 66.082 8.39322V8.41989C66.082 9.93376 67.4228 10.7258 68.7473 10.7258C69.8479 10.7258 70.5762 10.2685 71.0375 9.78929V10.5787H72.2991V6.1991C72.2991 5.28762 72.0519 4.57174 71.5645 4.07152C71.0427 3.53591 70.2749 3.2644 69.2819 3.2644V3.2644Z" fill="#2B2C33"/>
<path fill-rule="evenodd" clip-rule="evenodd" d="M77.1558 3.2644C76.2573 3.2644 75.5295 3.60177 74.9868 4.26853V3.40894H73.6807V10.4927H74.9868V6.45866C74.9868 5.29455 75.7602 4.48155 76.8678 4.48155C77.9636 4.48155 78.5922 5.17349 78.5922 6.37981V10.4927H79.8978V6.13043C79.8978 4.38941 78.8218 3.2644 77.1558 3.2644" fill="#2B2C33"/>
<path fill-rule="evenodd" clip-rule="evenodd" d="M83.0571 1.39893H81.7575V3.4635H80.8193V4.66417H81.7575V8.64308C81.7575 9.96659 82.5049 10.7257 83.8081 10.7257C84.2824 10.7257 84.6892 10.6278 85.0886 10.4176L85.1682 10.3755V9.17122L84.956 9.27505C84.6317 9.43373 84.3672 9.49836 84.0429 9.49836C83.3704 9.49836 83.0571 9.1845 83.0571 8.51073V4.66417H85.1943V3.4635H83.0571V1.39893" fill="#2B2C33"/>
<path fill-rule="evenodd" clip-rule="evenodd" d="M91.9177 6.9953V7.0218C91.9177 8.44012 90.9102 9.50965 89.5746 9.50965C88.2536 9.50965 87.2187 8.40523 87.2187 6.9953V6.96863C87.2187 5.54279 88.2203 4.46765 89.5489 4.46765C90.8769 4.46765 91.9177 5.57792 91.9177 6.9953ZM89.5751 3.2644C87.5059 3.2644 85.8848 4.9032 85.8848 6.99524V7.02173C85.8848 9.09881 87.4942 10.7258 89.5494 10.7258C91.6262 10.7258 93.2532 9.08716 93.2532 6.99524V6.96857C93.2532 4.89143 91.6373 3.2644 89.5751 3.2644V3.2644Z" fill="#2B2C33"/>
<mask id="mask0" mask-type="alpha" maskUnits="userSpaceOnUse" x="0" y="0" width="105" height="15">
<path fill-rule="evenodd" clip-rule="evenodd" d="M0 0.0114746H104.981V14.4567H0V0.0114746Z" fill="white"/>
</mask>
<g mask="url(#mask0)">
<path fill-rule="evenodd" clip-rule="evenodd" d="M102.316 3.30664C101.325 3.30664 100.548 3.70965 99.946 4.53699C99.4813 3.74128 98.7113 3.30664 97.7542 3.30664C96.7463 3.30664 96.1336 3.7814 95.7145 4.2991V3.45292H94.4072V10.6224H95.7145V6.55278C95.7145 5.38565 96.4453 4.53853 97.4526 4.53853C98.4511 4.53853 99.0469 5.2469 99.0469 6.43322V10.6224H100.354V6.51285C100.354 5.33198 101.042 4.53853 102.066 4.53853C103.103 4.53853 103.674 5.22083 103.674 6.45976V10.6224H104.981V6.22076C104.981 4.42329 103.96 3.30664 102.316 3.30664" fill="#2B2C33"/>
<path fill-rule="evenodd" clip-rule="evenodd" d="M5.12453 8.76035C5.12453 9.08414 5.05642 9.38251 4.92155 9.6573C4.78644 9.9321 4.59795 10.1648 4.35662 10.3558C4.11493 10.5469 3.82787 10.696 3.49504 10.8037C3.16163 10.9112 2.79711 10.965 2.40114 10.965C1.92747 10.965 1.50285 10.8993 1.12629 10.7679C0.749785 10.6362 0.373457 10.419 -0.00292969 10.1163L0.619762 9.09C0.91886 9.34436 1.18919 9.5304 1.43071 9.64765C1.67163 9.7652 1.91817 9.82373 2.16956 9.82373C2.47831 9.82373 2.72666 9.74333 2.91515 9.58164C3.10346 9.41978 3.19782 9.20216 3.19782 8.92796C3.19782 8.81041 3.18069 8.69974 3.14701 8.59742C3.11334 8.49432 3.05061 8.3891 2.95899 8.28103C2.8675 8.17373 2.74221 8.05619 2.58284 7.92892C2.42365 7.80166 2.21867 7.64477 1.96839 7.45885C1.77541 7.32151 1.58727 7.17961 1.40428 7.03279C1.22065 6.88586 1.05455 6.72897 0.905005 6.56231C0.755456 6.39588 0.635314 6.21002 0.542942 6.00454C0.451622 5.79824 0.406196 5.56332 0.406196 5.29926C0.406196 4.99579 0.468459 4.71892 0.593805 4.46907C0.718682 4.21922 0.889629 4.00652 1.1067 3.83032C1.32331 3.65394 1.58312 3.5166 1.88684 3.41884C2.1902 3.32073 2.51999 3.27173 2.87603 3.27173C3.25225 3.27173 3.6163 3.32298 3.96912 3.425C4.32084 3.52744 4.647 3.67533 4.94628 3.86972L4.38158 4.79114C3.99543 4.5173 3.58981 4.38026 3.16484 4.38026C2.90462 4.38026 2.68954 4.44911 2.5207 4.58615C2.35168 4.72354 2.26726 4.89465 2.26726 5.10066C2.26726 5.29671 2.34174 5.47333 2.49111 5.62968C2.63961 5.78663 2.8972 6.00709 3.26306 6.29101C3.63138 6.56574 3.93691 6.80564 4.179 7.01135C4.42151 7.21711 4.61269 7.41097 4.75311 7.59192C4.89401 7.77363 4.991 7.95742 5.04432 8.1434C5.09717 8.33003 5.12453 8.53532 5.12453 8.76035" fill="#2B2C33"/>
<path fill-rule="evenodd" clip-rule="evenodd" d="M13.5533 6.9569C13.5533 7.53439 13.466 8.06614 13.2915 8.55037C13.1171 9.03479 12.875 9.45829 12.5649 9.81976C12.2546 10.1824 11.8867 10.4642 11.4601 10.6645C11.0338 10.8645 10.5735 10.965 10.0794 10.965C9.85652 10.965 9.64786 10.9458 9.45417 10.9068C9.26019 10.8674 9.0765 10.801 8.90181 10.7081C8.72759 10.615 8.55536 10.4954 8.38593 10.3477C8.21656 10.2006 8.03959 10.0193 7.85561 9.80388V14.4566H5.99414V3.44793H7.85561L7.86578 4.51937C8.20458 4.08894 8.57184 3.77332 8.96828 3.57253C9.36501 3.37204 9.82477 3.27173 10.347 3.27173C10.821 3.27173 11.2534 3.36238 11.6453 3.54356C12.0368 3.72438 12.3754 3.97619 12.661 4.29945C12.9461 4.62288 13.1662 5.00935 13.3213 5.45976C13.4759 5.90987 13.5533 6.40909 13.5533 6.9569M11.5293 7.03119C11.5293 6.22803 11.3687 5.59354 11.0478 5.12827C10.727 4.66299 10.2893 4.43003 9.73525 4.43003C9.15208 4.43003 8.69028 4.67721 8.35008 5.17229C8.00977 5.66724 7.83946 6.33586 7.83946 7.17825C7.83946 8.00144 8.00725 8.64813 8.34254 9.11815C8.67783 9.58864 9.13735 9.82373 9.72099 9.82373C10.0706 9.82373 10.3596 9.7335 10.5884 9.55208C10.8169 9.37054 11.0016 9.14031 11.1425 8.86113C11.2835 8.58219 11.3832 8.27831 11.4416 7.95025C11.4996 7.62178 11.5293 7.31564 11.5293 7.03119" fill="#2B2C33"/>
<path fill-rule="evenodd" clip-rule="evenodd" d="M14.3809 10.7837H16.2913V0.0112305H14.3809V10.7837Z" fill="#2B2C33"/>
</g>
<path fill-rule="evenodd" clip-rule="evenodd" d="M22.4935 10.7825L22.4885 9.80816C22.1208 10.2162 21.7437 10.51 21.3566 10.6897C20.9696 10.8697 20.5195 10.959 20.0067 10.959C19.436 10.959 18.9549 10.8454 18.5627 10.6173C18.1708 10.3888 17.888 10.0509 17.7142 9.60398C17.6656 9.49728 17.6291 9.38523 17.6052 9.26884C17.5811 9.15245 17.5591 9.01908 17.5397 8.86845C17.5204 8.71735 17.5082 8.54517 17.5035 8.35091C17.4985 8.15677 17.4961 7.91817 17.4961 7.6367V3.49756H19.4069V7.66519C19.4069 8.03497 19.4238 8.31632 19.4576 8.51088C19.4916 8.70473 19.5523 8.88067 19.6398 9.03517C19.8629 9.44389 20.2562 9.64749 20.8192 9.64749C21.5374 9.64749 22.0324 9.34629 22.3039 8.74378C22.3718 8.58822 22.4203 8.41633 22.4496 8.22636C22.4788 8.03732 22.4935 7.76795 22.4935 7.41795V3.49756H24.404V10.7825H22.4935" fill="#2B2C33"/>
<path fill-rule="evenodd" clip-rule="evenodd" d="M30.7875 10.7258V6.56002C30.7875 6.19093 30.7708 5.90946 30.7363 5.7152C30.703 5.52135 30.6421 5.34622 30.5555 5.19068C30.3327 4.78304 29.9409 4.57907 29.379 4.57907C29.0206 4.57907 28.7129 4.6544 28.4565 4.80482C28.1999 4.95535 28.0085 5.17644 27.8831 5.46745C27.8148 5.63293 27.7689 5.80971 27.7447 5.99908C27.7207 6.18846 27.7086 6.45333 27.7086 6.79295V10.7258H25.7861V3.44183H27.7086L27.7123 4.41824C28.0794 4.00984 28.4554 3.71489 28.8418 3.53499C29.2277 3.35444 29.6769 3.2644 30.1885 3.2644C30.7583 3.2644 31.2383 3.38369 31.6295 3.62155C32.0205 3.85965 32.3029 4.1968 32.4765 4.63404C32.515 4.74138 32.5492 4.8506 32.5778 4.96224C32.6071 5.07434 32.6308 5.20263 32.6502 5.34828C32.6698 5.49387 32.6814 5.66641 32.6865 5.86573C32.6912 6.06499 32.694 6.30533 32.694 6.58698V10.7258H30.7875" fill="#2B2C33"/>
<path fill-rule="evenodd" clip-rule="evenodd" d="M38.9476 10.959L36.0274 6.89328V10.8114H34.0752V0H36.0274V6.34823H36.2329L38.8299 3.32899L40.2977 3.96229L37.8025 6.64294L40.7528 10.3252L38.9476 10.959" fill="#2B2C33"/>
<path fill-rule="evenodd" clip-rule="evenodd" d="M42.3652 10.4927V9.21562L46.8261 6.99516L42.3652 4.80357V3.49756L48.1218 6.41469V7.6045L42.3652 10.4927" fill="#ACACAD"/>
<path fill-rule="evenodd" clip-rule="evenodd" d="M42.9263 2.30539H43.0162C43.1188 2.30539 43.2056 2.26825 43.2056 2.172C43.2056 2.10349 43.1558 2.03567 43.0162 2.03567C42.9759 2.03567 42.9479 2.03868 42.9263 2.04188V2.30539ZM42.9259 2.73659H42.8016V1.95778C42.8668 1.94862 42.9289 1.9394 43.0218 1.9394C43.1399 1.9394 43.2171 1.96412 43.2642 1.99856C43.3105 2.03251 43.3355 2.08508 43.3355 2.15975C43.3355 2.26202 43.2669 2.32413 43.1834 2.34879V2.35494C43.2517 2.36742 43.2984 2.4296 43.314 2.54417C43.3328 2.66526 43.3513 2.71162 43.3634 2.73659H43.233C43.214 2.71162 43.1959 2.64029 43.1803 2.53802C43.1613 2.43882 43.1118 2.40137 43.013 2.40137H42.9259V2.73659ZM43.058 1.74077C42.7507 1.74077 42.4991 2.00429 42.4991 2.33011C42.4991 2.66189 42.7507 2.92245 43.0616 2.92245C43.3717 2.92572 43.6199 2.66189 43.6199 2.33306C43.6199 2.00429 43.3717 1.74077 43.0616 1.74077H43.058ZM43.061 1.63208C43.4425 1.63208 43.7468 1.94246 43.7468 2.33008C43.7468 2.72385 43.4425 3.0311 43.0575 3.0311C42.6756 3.0311 42.3652 2.72385 42.3652 2.33008C42.3652 1.94246 42.6756 1.63208 43.0575 1.63208H43.061V1.63208Z" fill="#ACACAD"/>
</svg>
